<svg xmlns="http://www.w3.org/2000/svg" width="492" height="409" xmlns:v="https://vecta.io/nano"><path d="M7.864 223.602l177.679 177.549c5.072 5.068 11.831 7.85 19.039 7.85 7.216 0 13.972-2.786 19.044-7.85l16.132-16.124c5.068-5.06 7.86-11.819 7.86-19.025s-2.792-14.189-7.86-19.249L136.103 242.948H465.42c14.848 0 26.58-11.615 26.58-26.456v-22.795c0-14.841-11.732-27.627-26.58-27.627H134.927L239.754 61.686c5.068-5.068 7.86-11.643 7.86-18.85 0-7.199-2.792-13.869-7.86-18.934L223.622 7.83C218.55 2.762 211.794 0 204.578 0a26.75 26.75 0 0 0-19.04 7.866L7.86 185.412A26.71 26.71 0 0 0 0 204.497c-.016 7.238 2.776 14.029 7.864 19.105z"/></svg>